<svg width="71" height="32" viewBox="0 0 71 32" fill="none" xmlns="http://www.w3.org/2000/svg">
<path d="M70.664 0H39.2134V32H70.664V0Z" fill="white"/>
<g clip-path="url(#clip0_69_361)">
<path d="M61.4184 12.7411C61.4285 12.8833 61.4285 13.0254 61.4285 13.1675C61.4285 17.5025 58.1512 22.4975 52.1613 22.4975C50.3159 22.4975 48.6017 21.9594 47.1597 21.0254C47.4219 21.0558 47.6739 21.066 47.9462 21.066C49.4689 21.066 50.8706 20.5483 51.9899 19.665C50.558 19.6345 49.358 18.6904 48.9445 17.3909C49.1462 17.4213 49.3479 17.4416 49.5597 17.4416C49.8521 17.4416 50.1445 17.401 50.4168 17.33C48.9244 17.0254 47.805 15.7056 47.805 14.1117V14.0711C48.2386 14.3148 48.7429 14.467 49.2773 14.4873C48.4 13.8985 47.8252 12.8934 47.8252 11.7563C47.8252 11.1472 47.9865 10.5888 48.2689 10.1015C49.8722 12.0914 52.2823 13.3908 54.9848 13.533C54.9344 13.2893 54.9041 13.0356 54.9041 12.7818C54.9041 10.9746 56.3562 9.50256 58.1613 9.50256C59.0991 9.50256 59.9461 9.8985 60.5411 10.5381C61.2772 10.396 61.9831 10.1218 62.6083 9.74622C62.3662 10.5077 61.852 11.1473 61.1764 11.5533C61.8318 11.4823 62.4671 11.2995 63.052 11.0457C62.6084 11.6954 62.0537 12.2741 61.4184 12.7411Z" fill="black"/>
</g>
<path d="M31.9262 0H0.475586V32H31.9262V0Z" fill="white"/>
<g clip-path="url(#clip1_69_361)">
<path d="M16.7403 8.20312C13.5556 8.20312 10.4082 10.3406 10.4082 13.8C10.4082 16 11.6374 17.25 12.3823 17.25C12.6896 17.25 12.8666 16.3875 12.8666 16.1438C12.8666 15.8531 12.1309 15.2344 12.1309 14.025C12.1309 11.5125 14.0305 9.73125 16.4889 9.73125C18.6027 9.73125 20.1671 10.9406 20.1671 13.1625C20.1671 14.8219 19.506 17.9344 17.3642 17.9344C16.5913 17.9344 15.9302 17.3719 15.9302 16.5656C15.9302 15.3844 16.7496 14.2406 16.7496 13.0219C16.7496 10.9531 13.835 11.3281 13.835 13.8281C13.835 14.3531 13.9002 14.9344 14.133 15.4125C13.7046 17.2688 12.8293 20.0344 12.8293 21.9469C12.8293 22.5375 12.9131 23.1188 12.969 23.7094C13.0745 23.8281 13.0218 23.8156 13.1832 23.7563C14.7476 21.6 14.6917 21.1781 15.3994 18.3562C15.7812 19.0875 16.7683 19.4812 17.5505 19.4812C20.8469 19.4812 22.3275 16.2469 22.3275 13.3313C22.3275 10.2281 19.6643 8.20312 16.7403 8.20312Z" fill="black"/>
</g>
<defs>
<clipPath id="clip0_69_361">
<rect width="15.8924" height="16" fill="white" transform="translate(47.1597 8)"/>
</clipPath>
<clipPath id="clip1_69_361">
<rect width="11.9193" height="16" fill="white" transform="translate(10.4082 8)"/>
</clipPath>
</defs>
</svg>
